<?xml version="1.0" encoding="UTF-8" standalone="no"?>
<!-- Created with Inkscape (http://www.inkscape.org/) -->

<svg
   width="106.74mm"
   height="101.843mm"
   viewBox="0 0 106.74 101.843"
   version="1.1"
   id="svg5"
   sodipodi:docname="BalloonDrawing2.svg"
   inkscape:version="1.2.2 (b0a8486541, 2022-12-01)"
   xmlns:inkscape="http://www.inkscape.org/namespaces/inkscape"
   xmlns:sodipodi="http://sodipodi.sourceforge.net/DTD/sodipodi-0.dtd"
   xmlns="http://www.w3.org/2000/svg"
   xmlns:svg="http://www.w3.org/2000/svg">
  <sodipodi:namedview
     id="namedview7"
     pagecolor="#ffffff"
     bordercolor="#000000"
     borderopacity="0.25"
     inkscape:showpageshadow="2"
     inkscape:pageopacity="0.0"
     inkscape:pagecheckerboard="0"
     inkscape:deskcolor="#d1d1d1"
     inkscape:document-units="mm"
     showgrid="false"
     inkscape:zoom="2.8144036"
     inkscape:cx="369.70533"
     inkscape:cy="157.93755"
     inkscape:window-width="2536"
     inkscape:window-height="1380"
     inkscape:window-x="12"
     inkscape:window-y="48"
     inkscape:window-maximized="1"
     inkscape:current-layer="layer1" />
  <defs
     id="defs2" />
  <g
     inkscape:label="Layer 1"
     inkscape:groupmode="layer"
     id="layer1"
     transform="translate(-24.235987,-72.280599)">
    <path
       id="path13776-6"
       style="fill:#ffffff;fill-opacity:1;stroke:none;stroke-width:0.374736;stroke-linecap:square;paint-order:fill markers stroke"
       d="m 108.6211,73.688671 a 2.443313,2.3377409 0 0 0 -1.83916,0.800984 c 2.02781,1.082451 3.23796,3.187948 3.22254,4.637444 -0.002,0.215763 -0.0226,0.432816 -0.0584,0.651123 h 3.77548 c 1.02087,0 1.84278,-0.730753 1.84278,-1.63866 0,-0.902235 -0.81168,-1.629593 -1.82366,-1.63866 a 2.1158586,2.0244353 0 0 0 -2.0991,-1.769918 2.1158586,2.0244353 0 0 0 -0.8723,0.181385 2.443313,2.3377409 0 0 0 -2.14767,-1.223698 z" />
    <path
       style="fill:#000000;stroke:#000000;stroke-width:0.19812"
       d="m 32.303979,119.66864 84.162631,-0.25922"
       id="path115"
       inkscape:export-filename="BalloonDrawing.pdf"
       inkscape:export-xdpi="96"
       inkscape:export-ydpi="96" />
    <rect
       style="fill:none;stroke:#ff6600;stroke-width:0.196862"
       id="rect225"
       width="2.5808313"
       height="2.6173706"
       x="41.69001"
       y="130.10258" />
    <rect
       style="fill:none;stroke:#ff6600;stroke-width:0.196862"
       id="rect225-6"
       width="2.5808313"
       height="2.6173706"
       x="41.841396"
       y="151.81541" />
    <path
       style="fill:none;stroke:#0000ff;stroke-width:0.158206;stroke-dasharray:none;stroke-dashoffset:0"
       d="m 42.877706,129.99569 0.0222,-10.26343"
       id="path1907" />
    <path
       style="fill:none;stroke:#0000ff;stroke-width:0.159173;stroke-dasharray:none;stroke-dashoffset:0"
       d="m 42.915878,132.80573 0.159547,18.92706"
       id="path2017" />
    <ellipse
       style="fill:none;stroke:#000000;stroke-width:0.105744"
       id="path443"
       cx="104.14857"
       cy="90.644516"
       rx="1.0527713"
       ry="1.0708208" />
    <rect
       style="fill:none;stroke:#000000;stroke-width:0.105744"
       id="rect549-3"
       width="3.1943679"
       height="2.1767683"
       x="97.725822"
       y="89.519951" />
    <path
       style="fill:none;stroke:#000000;stroke-width:0.105744"
       d="m 100.92082,90.606746 2.17347,0.02336"
       id="path735" />
    <path
       style="fill:none;stroke:#000000;stroke-width:0.105744"
       d="m 105.19282,90.642716 2.17347,0.02336"
       id="path735-7" />
    <path
       style="fill:none;stroke:#000000;stroke-width:0.105744"
       d="m 98.381447,89.51827 -0.003,2.16637"
       id="path764" />
    <path
       style="fill:none;stroke:#000000;stroke-width:0.105744"
       d="m 99.040059,89.53751 -0.003,2.16637"
       id="path764-5" />
    <path
       style="fill:none;stroke:#000000;stroke-width:0.105744"
       d="m 99.683986,89.524129 -0.003,2.16637"
       id="path764-3" />
    <path
       style="fill:none;stroke:#000000;stroke-width:0.105744"
       d="m 100.30701,89.532957 -0.003,2.16637"
       id="path764-56" />
    <rect
       style="fill:none;stroke:#000000;stroke-width:0.105744"
       id="rect549-3-2"
       width="3.1943679"
       height="2.1767683"
       x="107.38126"
       y="89.57914" />
    <path
       style="fill:none;stroke:#000000;stroke-width:0.105744"
       d="m 108.03688,89.577457 -0.003,2.16637"
       id="path764-9" />
    <path
       style="fill:none;stroke:#000000;stroke-width:0.105744"
       d="m 108.69549,89.596697 -0.003,2.16637"
       id="path764-5-1" />
    <path
       style="fill:none;stroke:#000000;stroke-width:0.105744"
       d="m 109.33942,89.583316 -0.003,2.16637"
       id="path764-3-2" />
    <path
       style="fill:none;stroke:#000000;stroke-width:0.105744"
       d="m 109.96244,89.592144 -0.003,2.16637"
       id="path764-56-7" />
    <path
       style="fill:none;stroke:#000000;stroke-width:0.105744"
       d="m 104.13904,89.558565 0.005,-2.133262"
       id="path856" />
    <path
       style="fill:none;stroke:#000000;stroke-width:0.0889798"
       d="m 97.967049,79.657702 c -0.02187,-4.492826 4.482451,-5.897829 6.042301,-5.885993 3.63145,0.02756 5.98694,3.318921 5.96546,5.337718 -0.0413,3.886549 -5.83133,8.32414 -5.83133,8.32414 0,0 -6.222182,-4.347943 -6.176431,-7.775865 z"
       id="path1462"
       sodipodi:nodetypes="csscc" />
    <path
       style="fill:#ff0000;stroke:#000000;stroke-width:0.156;stroke-dasharray:none"
       d="m 42.907577,119.61078 -0.01045,-4.11096 2.018358,0.76382 -1.951748,0.63515"
       id="path2222"
       inkscape:export-filename="../figures/BalloonDrawing.pdf"
       inkscape:export-xdpi="96"
       inkscape:export-ydpi="96" />
    <path
       id="path13694"
       style="fill:#ffffff;fill-opacity:1;stroke:none;stroke-width:0.339404;stroke-linecap:square;paint-order:fill markers stroke"
       d="m 97.2887,79.556665 a 2.1410953,2.1883841 0 0 0 -2.14106,2.188353 2.1410953,2.1883841 0 0 0 0.0146,0.242232 c -0.8075,0.148199 -1.41332,0.814798 -1.41332,1.619622 0,0.914363 0.78194,1.650476 1.75322,1.650476 h 2.48521 0.13598 3.63467 c 0.89461,0 1.61482,-0.684245 1.61482,-1.534149 0,-0.844592 -0.71133,-1.525206 -1.59815,-1.533694 a 1.8541443,1.8950954 0 0 0 -1.839369,-1.656829 1.8541443,1.8950954 0 0 0 -0.764241,0.169746 2.1410953,2.1883841 0 0 0 -1.88235,-1.145757 z"
       inkscape:export-filename="../figures/BalloonDrawing.pdf"
       inkscape:export-xdpi="96"
       inkscape:export-ydpi="96" />
    <path
       style="fill:none;stroke:#ff6600;stroke-width:0.156;stroke-dasharray:none;stroke-dashoffset:0"
       d="M 104.02811,90.691797 65.670309,119.61966 c 0,0 -19.676461,16.4228 -22.516652,33.59363"
       id="path1759" />
    <path
       style="fill:none;stroke:#ff6600;stroke-width:0.156;stroke-dasharray:none;stroke-dashoffset:0"
       d="m 104.07646,90.68717 -47.130506,28.9139 c 0,0 -11.792667,5.11852 -14.089002,11.91445"
       id="path1649"
       inkscape:export-filename="../figures/BalloonDrawing.pdf"
       inkscape:export-xdpi="96"
       inkscape:export-ydpi="96" />
  </g>
</svg>
