<?xml version="1.0" encoding="UTF-8" standalone="no"?>
<!-- Created with Inkscape (http://www.inkscape.org/) -->

<svg
   width="93.216377mm"
   height="51.494583mm"
   viewBox="0 0 93.216377 51.494583"
   version="1.1"
   id="svg5"
   inkscape:export-filename="IlluCorr.svg"
   inkscape:export-xdpi="96"
   inkscape:export-ydpi="96"
   xmlns:inkscape="http://www.inkscape.org/namespaces/inkscape"
   xmlns:sodipodi="http://sodipodi.sourceforge.net/DTD/sodipodi-0.dtd"
   xmlns="http://www.w3.org/2000/svg"
   xmlns:svg="http://www.w3.org/2000/svg">
  <sodipodi:namedview
     id="namedview7"
     pagecolor="#ffffff"
     bordercolor="#000000"
     borderopacity="0.25"
     inkscape:showpageshadow="2"
     inkscape:pageopacity="0.0"
     inkscape:pagecheckerboard="0"
     inkscape:deskcolor="#d1d1d1"
     inkscape:document-units="mm"
     showgrid="false" />
  <defs
     id="defs2">
    <inkscape:path-effect
       effect="bspline"
       id="path-effect1341"
       is_visible="true"
       lpeversion="1"
       weight="33.333333"
       steps="2"
       helper_size="0"
       apply_no_weight="true"
       apply_with_weight="true"
       only_selected="false" />
    <marker
       style="overflow:visible"
       id="marker1189"
       refX="0"
       refY="0"
       orient="auto-start-reverse"
       inkscape:stockid="Arrow1"
       markerWidth="4.0606599"
       markerHeight="6.7071066"
       viewBox="0 0 4.0606602 6.7071068"
       inkscape:isstock="true"
       inkscape:collect="always"
       preserveAspectRatio="xMidYMid">
      <path
         style="fill:none;stroke:context-stroke;stroke-width:1;stroke-linecap:butt"
         d="M 3,-3 0,0 3,3"
         id="path1187"
         transform="rotate(180,0.125,0)"
         sodipodi:nodetypes="ccc" />
    </marker>
    <marker
       style="overflow:visible"
       id="Arrow1"
       refX="0"
       refY="0"
       orient="auto-start-reverse"
       inkscape:stockid="Arrow1"
       markerWidth="4.0606604"
       markerHeight="6.7071066"
       viewBox="0 0 4.0606602 6.7071068"
       inkscape:isstock="true"
       inkscape:collect="always"
       preserveAspectRatio="xMidYMid">
      <path
         style="fill:none;stroke:context-stroke;stroke-width:1;stroke-linecap:butt"
         d="M 3,-3 0,0 3,3"
         id="path5057"
         transform="rotate(180,0.125,0)"
         sodipodi:nodetypes="ccc" />
    </marker>
    <marker
       style="overflow:visible"
       id="Arrow1-3"
       refX="0"
       refY="0"
       orient="auto-start-reverse"
       inkscape:stockid="Arrow1"
       markerWidth="4.0606604"
       markerHeight="6.7071066"
       viewBox="0 0 4.0606602 6.7071068"
       inkscape:isstock="true"
       inkscape:collect="always"
       preserveAspectRatio="xMidYMid">
      <path
         style="fill:none;stroke:context-stroke;stroke-width:1;stroke-linecap:butt"
         d="M 3,-3 0,0 3,3"
         id="path5057-6"
         transform="rotate(180,0.125,0)"
         sodipodi:nodetypes="ccc" />
    </marker>
    <marker
       style="overflow:visible"
       id="marker1189-5"
       refX="0"
       refY="0"
       orient="auto-start-reverse"
       inkscape:stockid="Arrow1"
       markerWidth="4.0606604"
       markerHeight="6.7071066"
       viewBox="0 0 4.0606602 6.7071068"
       inkscape:isstock="true"
       inkscape:collect="always"
       preserveAspectRatio="xMidYMid">
      <path
         style="fill:none;stroke:context-stroke;stroke-width:1;stroke-linecap:butt"
         d="M 3,-3 0,0 3,3"
         id="path1187-3"
         transform="rotate(180,0.125,0)"
         sodipodi:nodetypes="ccc" />
    </marker>
    <inkscape:path-effect
       effect="bspline"
       id="path-effect1341-6"
       is_visible="true"
       lpeversion="1"
       weight="33.333333"
       steps="2"
       helper_size="0"
       apply_no_weight="true"
       apply_with_weight="true"
       only_selected="false" />
    <inkscape:path-effect
       effect="bspline"
       id="path-effect1341-9"
       is_visible="true"
       lpeversion="1"
       weight="33.333333"
       steps="2"
       helper_size="0"
       apply_no_weight="true"
       apply_with_weight="true"
       only_selected="false" />
    <inkscape:path-effect
       effect="bspline"
       id="path-effect1341-2"
       is_visible="true"
       lpeversion="1"
       weight="33.333333"
       steps="2"
       helper_size="0"
       apply_no_weight="true"
       apply_with_weight="true"
       only_selected="false" />
    <inkscape:path-effect
       effect="bspline"
       id="path-effect1341-0"
       is_visible="true"
       lpeversion="1"
       weight="33.333333"
       steps="2"
       helper_size="0"
       apply_no_weight="true"
       apply_with_weight="true"
       only_selected="false" />
    <inkscape:path-effect
       effect="bspline"
       id="path-effect1341-0-0"
       is_visible="true"
       lpeversion="1"
       weight="33.333333"
       steps="2"
       helper_size="0"
       apply_no_weight="true"
       apply_with_weight="true"
       only_selected="false" />
    <inkscape:path-effect
       effect="bspline"
       id="path-effect1341-0-2"
       is_visible="true"
       lpeversion="1"
       weight="33.333333"
       steps="2"
       helper_size="0"
       apply_no_weight="true"
       apply_with_weight="true"
       only_selected="false" />
    <inkscape:path-effect
       effect="bspline"
       id="path-effect1341-0-8"
       is_visible="true"
       lpeversion="1"
       weight="33.333333"
       steps="2"
       helper_size="0"
       apply_no_weight="true"
       apply_with_weight="true"
       only_selected="false" />
  </defs>
  <g
     inkscape:label="Layer 1"
     inkscape:groupmode="layer"
     id="layer1"
     transform="translate(-58.208764,-98.273831)">
    <path
       style="fill:none;stroke:#000000;stroke-width:0.264583;marker-end:url(#Arrow1)"
       d="m 72.196808,116.38105 72.513832,0.31265"
       id="path115" />
    <path
       style="fill:none;stroke:#000000;stroke-width:0.264583;marker-end:url(#Arrow1-3)"
       d="m 71.163515,144.30049 72.513835,0.31265"
       id="path115-7" />
    <path
       style="fill:none;stroke:#000000;stroke-width:0.264583;marker-end:url(#marker1189)"
       d="M 75.088754,121.67309 75.444709,98.527038"
       id="path1185" />
    <path
       style="fill:none;stroke:#000000;stroke-width:0.264583;marker-end:url(#marker1189-5)"
       d="m 74.588821,149.64009 0.35595,-23.14605"
       id="path1185-5" />
    <path
       style="fill:none;stroke:#0000ff;stroke-width:0.264583"
       d="m 75.288282,116.43299 c 2.326859,-0.0297 4.653454,-0.0595 5.835805,-1.70767 1.182352,-1.6482 1.22072,-4.91501 1.256787,-7.14716 0.03607,-2.23215 0.06983,-3.42952 0.356735,-4.03649 0.286901,-0.60698 0.826653,-0.62328 1.292382,-0.63092 0.46573,-0.008 0.857401,-0.007 1.048531,0.4104 0.19113,0.41705 0.181976,1.24986 0.116039,3.50517 -0.06594,2.25532 -0.188649,5.93301 0.719127,7.76504 0.907775,1.83203 2.845689,1.8186 4.783381,1.80517"
       id="path1339"
       inkscape:path-effect="#path-effect1341"
       inkscape:original-d="m 75.288282,116.43299 c 2.326862,-0.0295 4.653457,-0.0592 6.97979,-0.0892 0.03863,-3.26667 0.077,-6.53348 0.115107,-9.80061 0.03403,-1.19716 0.0678,-2.39453 0.101304,-3.59218 0.540036,-0.016 1.079788,-0.0323 1.619284,-0.0489 0.391954,10e-4 0.783625,0.002 1.175041,0.003 -0.0089,0.8331 -0.01804,1.66591 -0.02746,2.49846 -0.122451,3.67809 -0.245162,7.35578 -0.368141,11.03327 1.938258,-0.0132 3.876172,-0.0266 5.813862,-0.0403" />
    <path
       style="fill:none;stroke:#0000ff;stroke-width:0.264583"
       d="m 89.819016,116.53289 c 2.326857,-0.0297 4.653447,-0.0595 5.8358,-1.70767 1.182354,-1.6482 1.22072,-4.91501 1.256787,-7.14716 0.03607,-2.23215 0.06984,-3.42952 0.356735,-4.03649 0.286899,-0.60698 0.826659,-0.62328 1.292388,-0.63092 0.46573,-0.008 0.8574,-0.007 1.04852,0.4104 0.19112,0.41705 0.181954,1.24986 0.11601,3.50517 -0.06594,2.25532 -0.188655,5.93301 0.719124,7.76504 0.90778,1.83203 2.84569,1.8186 4.78338,1.80517"
       id="path1339-2"
       inkscape:path-effect="#path-effect1341-6"
       inkscape:original-d="m 89.819016,116.53289 c 2.32686,-0.0295 4.65345,-0.0592 6.97979,-0.0892 0.0386,-3.26667 0.077,-6.53348 0.1151,-9.80061 0.034,-1.19716 0.0678,-2.39453 0.10131,-3.59218 0.54003,-0.016 1.07979,-0.0323 1.61928,-0.0489 0.39196,0.001 0.78363,0.002 1.17504,0.003 -0.009,0.8331 -0.018,1.66591 -0.0275,2.49846 -0.12245,3.67809 -0.24516,7.35578 -0.36814,11.03327 1.938264,-0.0132 3.876174,-0.0266 5.813864,-0.0403" />
    <path
       style="fill:none;stroke:#0000ff;stroke-width:0.264583"
       d="m 103.68131,116.41238 c 2.32687,-0.0297 4.65346,-0.0595 5.83581,-1.70767 1.18235,-1.6482 1.22072,-4.91501 1.25678,-7.14716 0.0361,-2.23215 0.0698,-3.42952 0.35674,-4.03649 0.2869,-0.60698 0.82665,-0.62328 1.29238,-0.63092 0.46573,-0.008 0.8574,-0.007 1.04853,0.4104 0.19112,0.41705 0.18195,1.24986 0.11601,3.50517 -0.0659,2.25532 -0.18866,5.93301 0.71912,7.76504 0.90778,1.83203 2.84569,1.8186 4.78338,1.80517"
       id="path1339-1"
       inkscape:path-effect="#path-effect1341-9"
       inkscape:original-d="m 103.68131,116.41238 c 2.32687,-0.0295 4.65346,-0.0592 6.97979,-0.0892 0.0386,-3.26667 0.077,-6.53348 0.11511,-9.80061 0.034,-1.19716 0.0678,-2.39453 0.1013,-3.59218 0.54004,-0.016 1.07979,-0.0323 1.61929,-0.0489 0.39195,0.001 0.78362,0.002 1.17504,0.003 -0.009,0.8331 -0.018,1.66591 -0.0275,2.49846 -0.12245,3.67809 -0.24516,7.35578 -0.36814,11.03327 1.93826,-0.0132 3.87617,-0.0266 5.81386,-0.0403" />
    <path
       style="fill:none;stroke:#0000ff;stroke-width:0.264583"
       d="m 118.2214,116.41504 c 2.32686,-0.0297 4.65346,-0.0595 5.83581,-1.70767 1.18235,-1.6482 1.22072,-4.91501 1.25678,-7.14716 0.0361,-2.23215 0.0698,-3.42952 0.35674,-4.03649 0.2869,-0.60698 0.82665,-0.62328 1.29238,-0.63092 0.46573,-0.008 0.8574,-0.007 1.04853,0.4104 0.19112,0.41705 0.18195,1.24986 0.11601,3.50517 -0.0659,2.25532 -0.18866,5.93301 0.71911,7.76504 0.90778,1.83203 2.8457,1.8186 4.78339,1.80517"
       id="path1339-7"
       inkscape:path-effect="#path-effect1341-2"
       inkscape:original-d="m 118.2214,116.41504 c 2.32686,-0.0295 4.65346,-0.0592 6.97979,-0.0892 0.0386,-3.26667 0.077,-6.53348 0.11511,-9.80061 0.034,-1.19716 0.0678,-2.39453 0.1013,-3.59218 0.54004,-0.016 1.07979,-0.0323 1.61928,-0.0489 0.39196,10e-4 0.78363,0.002 1.17505,0.003 -0.009,0.8331 -0.018,1.66591 -0.0275,2.49846 -0.12246,3.67809 -0.24517,7.35578 -0.36815,11.03327 1.93826,-0.0132 3.87618,-0.0266 5.81387,-0.0403" />
    <path
       style="fill:none;stroke:#00ff00;stroke-width:0.264583"
       d="m 75.016855,144.28115 c 2.326859,-0.0297 4.653454,-0.0595 5.835805,-1.70767 1.182352,-1.6482 1.22072,-4.91501 1.256787,-7.14716 0.03607,-2.23215 0.06983,-3.42952 0.356735,-4.03649 0.286901,-0.60698 0.826653,-0.62328 1.292382,-0.63092 0.46573,-0.008 0.857401,-0.007 1.048531,0.4104 0.19113,0.41705 0.181976,1.24986 0.116039,3.50517 -0.06594,2.25532 -0.188649,5.93301 0.719127,7.76504 0.907775,1.83203 2.845689,1.8186 4.783381,1.80517"
       id="path1339-9"
       inkscape:path-effect="#path-effect1341-0"
       inkscape:original-d="m 75.016855,144.28115 c 2.326862,-0.0295 4.653457,-0.0592 6.97979,-0.0892 0.03863,-3.26667 0.077,-6.53348 0.115107,-9.80061 0.03403,-1.19716 0.0678,-2.39453 0.101304,-3.59218 0.540036,-0.016 1.079788,-0.0323 1.619284,-0.0489 0.391954,0.001 0.783625,0.002 1.175041,0.003 -0.0089,0.8331 -0.01804,1.66591 -0.02746,2.49846 -0.122451,3.67809 -0.245162,7.35578 -0.368141,11.03327 1.938258,-0.0132 3.876172,-0.0266 5.813862,-0.0403" />
    <path
       style="fill:none;stroke:#00ff00;stroke-width:0.264583"
       d="m 89.479639,144.48869 c 2.326859,-0.0297 4.653454,-0.0595 5.835805,-1.70767 1.182352,-1.6482 1.22072,-4.91501 1.256787,-7.14716 0.03607,-2.23215 0.06983,-3.42952 0.356735,-4.03649 0.286901,-0.60698 0.826653,-0.62328 1.292382,-0.63092 0.46573,-0.008 0.857401,-0.007 1.048531,0.4104 0.19113,0.41705 0.181976,1.24986 0.116039,3.50517 -0.06594,2.25532 -0.188649,5.93301 0.719122,7.76504 0.90778,1.83203 2.84569,1.8186 4.78338,1.80517"
       id="path1339-9-6"
       inkscape:path-effect="#path-effect1341-0-0"
       inkscape:original-d="m 89.479639,144.48869 c 2.326862,-0.0295 4.653457,-0.0592 6.97979,-0.0892 0.03863,-3.26667 0.077,-6.53348 0.115107,-9.80061 0.03403,-1.19716 0.0678,-2.39453 0.101304,-3.59218 0.540036,-0.016 1.079788,-0.0323 1.619284,-0.0489 0.391954,0.001 0.783625,0.002 1.175041,0.003 -0.0089,0.8331 -0.01804,1.66591 -0.02746,2.49846 -0.122451,3.67809 -0.245162,7.35578 -0.368141,11.03327 1.938256,-0.0132 3.876166,-0.0266 5.813856,-0.0403" />
    <path
       style="fill:none;stroke:#00ff00;stroke-width:0.264583"
       d="m 103.62023,144.50196 c 2.32687,-0.0297 4.65346,-0.0595 5.83581,-1.70767 1.18235,-1.6482 1.22072,-4.91501 1.25678,-7.14716 0.0361,-2.23215 0.0698,-3.42952 0.35674,-4.03649 0.2869,-0.60698 0.82665,-0.62328 1.29238,-0.63092 0.46573,-0.008 0.8574,-0.007 1.04853,0.4104 0.19112,0.41705 0.18195,1.24986 0.11601,3.50517 -0.0659,2.25532 -0.18866,5.93301 0.71912,7.76504 0.90778,1.83203 2.84569,1.8186 4.78338,1.80517"
       id="path1339-9-61"
       inkscape:path-effect="#path-effect1341-0-2"
       inkscape:original-d="m 103.62023,144.50196 c 2.32687,-0.0295 4.65346,-0.0592 6.97979,-0.0892 0.0386,-3.26667 0.077,-6.53348 0.11511,-9.80061 0.034,-1.19716 0.0678,-2.39453 0.1013,-3.59218 0.54004,-0.016 1.07979,-0.0323 1.61929,-0.0489 0.39195,0.001 0.78362,0.002 1.17504,0.003 -0.009,0.8331 -0.018,1.66591 -0.0275,2.49846 -0.12245,3.67809 -0.24516,7.35578 -0.36814,11.03327 1.93826,-0.0132 3.87617,-0.0266 5.81386,-0.0403" />
    <path
       style="fill:none;stroke:#00ff00;stroke-width:0.264583"
       d="m 118.563,144.42099 c 2.32686,-0.0297 4.65345,-0.0595 5.8358,-1.70767 1.18235,-1.6482 1.22072,-4.91501 1.25679,-7.14716 0.0361,-2.23215 0.0698,-3.42952 0.35673,-4.03649 0.2869,-0.60698 0.82665,-0.62328 1.29238,-0.63092 0.46573,-0.008 0.85741,-0.007 1.04853,0.4104 0.19112,0.41705 0.18195,1.24986 0.11601,3.50517 -0.0659,2.25532 -0.18866,5.93301 0.71912,7.76504 0.90778,1.83203 2.84569,1.8186 4.78338,1.80517"
       id="path1339-9-7"
       inkscape:path-effect="#path-effect1341-0-8"
       inkscape:original-d="m 118.563,144.42099 c 2.32686,-0.0295 4.65345,-0.0592 6.97979,-0.0892 0.0386,-3.26667 0.077,-6.53348 0.1151,-9.80061 0.034,-1.19716 0.0678,-2.39453 0.10131,-3.59218 0.54003,-0.016 1.07978,-0.0323 1.61928,-0.0489 0.39195,0.001 0.78363,0.002 1.17504,0.003 -0.009,0.8331 -0.018,1.66591 -0.0275,2.49846 -0.12245,3.67809 -0.24516,7.35578 -0.36814,11.03327 1.93826,-0.0132 3.87617,-0.0266 5.81386,-0.0403" />
    <text
       xml:space="preserve"
       style="font-size:3.175px;fill:#000000;stroke:none;stroke-width:0.264583"
       x="59.078117"
       y="101.84843"
       id="text1869"><tspan
         sodipodi:role="line"
         id="tspan1867"
         style="fill:#000000;stroke:none;stroke-width:0.264583"
         x="59.078117"
         y="101.84843">correlation</tspan></text>
    <text
       xml:space="preserve"
       style="font-size:3.175px;fill:#000000;stroke:none;stroke-width:0.264583"
       x="58.11034"
       y="128.77831"
       id="text1869-9"><tspan
         sodipodi:role="line"
         id="tspan1867-2"
         style="fill:#000000;stroke:none;stroke-width:0.264583"
         x="58.11034"
         y="128.77831">correlation</tspan></text>
    <text
       xml:space="preserve"
       style="font-size:3.175px;fill:#000000;stroke:none;stroke-width:0.264583"
       x="145.60536"
       y="119.40685"
       id="text2002"><tspan
         sodipodi:role="line"
         id="tspan2000"
         style="stroke-width:0.264583"
         x="145.60536"
         y="119.40685">shift</tspan><tspan
         sodipodi:role="line"
         style="stroke-width:0.264583"
         x="145.60536"
         y="123.3756"
         id="tspan2048" /></text>
    <text
       xml:space="preserve"
       style="font-size:3.175px;fill:#000000;stroke:none;stroke-width:0.264583"
       x="144.60689"
       y="146.89699"
       id="text2002-9"><tspan
         sodipodi:role="line"
         id="tspan2000-2"
         style="stroke-width:0.264583"
         x="144.60689"
         y="146.89699">shift</tspan><tspan
         sodipodi:role="line"
         style="stroke-width:0.264583"
         x="144.60689"
         y="150.86574"
         id="tspan2048-2" /></text>
    <path
       style="fill:none;stroke:#0000ff;stroke-width:0.264583;stroke-dasharray:0.264583, 0.529166;stroke-dashoffset:0"
       d="m 84.005117,98.919481 -0.59166,22.623849"
       id="path2132" />
    <path
       style="fill:none;stroke:#00ff00;stroke-width:0.264583;stroke-dasharray:0.264583, 0.264583;stroke-dashoffset:0"
       d="M 83.054853,149.76396 84.776962,98.641185"
       id="path2134" />
    <path
       style="fill:none;stroke:#000000;stroke-width:0.264583;stroke-dasharray:none;stroke-dashoffset:0;marker-end:url(#marker1189)"
       d="m 83.691404,121.81155 c 7.660327,7.45048 14.095253,4.15168 14.095253,4.15168"
       id="path2192" />
    <text
       xml:space="preserve"
       style="font-size:3.175px;fill:#000000;stroke:none;stroke-width:0.264583;stroke-dasharray:none;stroke-dashoffset:0"
       x="99.210686"
       y="126.15678"
       id="text2250"><tspan
         sodipodi:role="line"
         id="tspan2248"
         style="fill:#000000;stroke:none;stroke-width:0.264583"
         x="99.210686"
         y="126.15678">Δ t</tspan></text>
  </g>
</svg>
